<svg width="936" height="216" viewBox="0 0 936 216" fill="none" xmlns="http://www.w3.org/2000/svg">
<path d="M81.1443 136.545H100.792L125.541 169.323L129.697 174.802L160.113 215.136H140.465L114.205 180.092L81.1443 136.545ZM167.292 100.273C167.292 120.424 163.703 137.962 156.524 152.887C149.345 167.749 139.458 179.273 126.863 187.459C114.331 195.583 99.9104 199.645 83.6002 199.645C67.2901 199.645 52.8377 195.583 40.243 187.459C27.7113 179.273 17.8559 167.749 10.6769 152.887C3.56093 137.962 0.00292969 120.424 0.00292969 100.273C0.00292969 80.1212 3.56093 62.6145 10.6769 47.7528C17.8559 32.8281 27.7428 21.3039 40.3374 13.1803C52.9321 4.99379 67.3531 0.900513 83.6002 0.900513C99.9104 0.900513 114.331 4.99379 126.863 13.1803C139.458 21.3039 149.345 32.8281 156.524 47.7528C163.703 62.6145 167.292 80.1212 167.292 100.273ZM150.1 100.273C150.1 82.955 147.203 68.1247 141.41 55.7819C135.616 43.3761 127.713 33.8986 117.7 27.3494C107.688 20.8001 96.3209 17.5255 83.6002 17.5255C70.9426 17.5255 59.6073 20.8001 49.5946 27.3494C39.5818 33.8986 31.6471 43.3446 25.7906 55.6875C19.997 68.0302 17.1002 82.892 17.1002 100.273C17.1002 117.59 19.997 132.421 25.7906 144.763C31.5841 157.106 39.4873 166.584 49.5001 173.196C59.5129 179.745 70.8796 183.02 83.6002 183.02C96.3209 183.02 107.688 179.745 117.7 173.196C127.776 166.647 135.711 157.201 141.504 144.858C147.298 132.452 150.163 117.59 150.1 100.273Z" fill="black"/>
<path d="M298.71 141.552V51.909H315.524V197H298.71V172.913H297.387C293.987 180.343 288.603 186.546 281.235 191.521C273.867 196.433 264.862 198.889 254.219 198.889C244.962 198.889 236.744 196.874 229.565 192.844C222.386 188.75 216.75 182.768 212.657 174.896C208.563 167.025 206.517 157.358 206.517 145.897V51.909H223.331V144.858C223.331 156.193 226.668 165.324 233.343 172.251C240.018 179.115 248.583 182.548 259.036 182.548C265.586 182.548 271.883 180.973 277.929 177.825C283.974 174.676 288.949 170.079 292.853 164.033C296.758 157.925 298.71 150.431 298.71 141.552Z" fill="black"/>
<path d="M418.698 200.023C405.159 200.023 393.446 196.874 383.559 190.577C373.672 184.216 366.021 175.432 360.605 164.222C355.252 152.95 352.576 139.977 352.576 125.305C352.576 110.695 355.252 97.7222 360.605 86.387C366.021 74.9888 373.483 66.0781 382.992 59.6548C392.564 53.1685 403.616 49.9254 416.147 49.9254C424.019 49.9254 431.607 51.3738 438.912 54.2705C446.217 57.1043 452.767 61.481 458.56 67.4005C464.417 73.2571 469.045 80.6564 472.446 89.5987C475.846 98.4779 477.547 108.995 477.547 121.148V129.461H364.194V114.631H460.355C460.355 105.311 458.466 96.9351 454.687 89.5042C450.972 82.0104 445.776 76.0909 439.101 71.7457C432.489 67.4005 424.838 65.2279 416.147 65.2279C406.953 65.2279 398.861 67.6839 391.871 72.5958C384.881 77.5078 379.402 83.994 375.435 92.0546C371.531 100.115 369.547 108.932 369.484 118.504V127.383C369.484 138.907 371.468 148.983 375.435 157.61C379.465 166.174 385.165 172.818 392.532 177.541C399.9 182.264 408.622 184.626 418.698 184.626C425.562 184.626 431.576 183.555 436.74 181.414C441.967 179.273 446.343 176.408 449.87 172.818C453.459 169.166 456.167 165.167 457.993 160.822L473.957 166.017C471.753 172.125 468.132 177.762 463.094 182.925C458.119 188.089 451.885 192.245 444.391 195.394C436.96 198.48 428.396 200.023 418.698 200.023Z" fill="black"/>
<path d="M531.413 106.318V197H514.599V51.909H530.94V74.674H532.452C535.852 67.2431 541.142 61.2921 548.321 56.821C555.563 52.2869 564.505 50.0198 575.148 50.0198C584.909 50.0198 593.473 52.0665 600.841 56.1598C608.272 60.1901 614.034 66.141 618.127 74.0127C622.283 81.8844 624.361 91.5508 624.361 103.012V197H607.547V104.051C607.547 92.1491 604.21 82.7346 597.535 75.8075C590.923 68.8804 582.043 65.4168 570.897 65.4168C563.277 65.4168 556.507 67.0542 550.588 70.3288C544.668 73.6034 539.977 78.3264 536.513 84.4978C533.113 90.6062 531.413 97.8797 531.413 106.318Z" fill="black"/>
<path d="M725.788 51.909V66.5504H656.549V51.909H725.788ZM678.18 17.1477H695.089V159.121C695.089 165.167 696.128 169.921 698.206 173.385C700.284 176.785 702.992 179.21 706.329 180.658C709.667 182.044 713.225 182.736 717.003 182.736C719.207 182.736 721.097 182.611 722.671 182.359C724.245 182.044 725.631 181.729 726.827 181.414L730.417 196.622C728.779 197.252 726.764 197.819 724.371 198.322C721.978 198.889 719.018 199.173 715.492 199.173C709.321 199.173 703.37 197.819 697.639 195.111C691.971 192.403 687.311 188.373 683.659 183.02C680.006 177.667 678.18 171.023 678.18 163.089V17.1477Z" fill="black"/>
<path d="M764.163 197V51.909H781.071V197H764.163ZM772.758 26.9715C769.295 26.9715 766.335 25.8065 763.879 23.4765C761.423 21.0835 760.195 18.2182 760.195 14.8806C760.195 11.543 761.423 8.70923 763.879 6.37921C766.335 3.98621 769.295 2.78971 772.758 2.78971C776.222 2.78971 779.182 3.98621 781.638 6.37921C784.094 8.70923 785.322 11.543 785.322 14.8806C785.322 18.2182 784.094 21.0835 781.638 23.4765C779.182 25.8065 776.222 26.9715 772.758 26.9715Z" fill="black"/>
<path d="M842.352 106.318V197H825.538V51.909H841.88V74.674H843.391C846.792 67.2431 852.081 61.2921 859.26 56.821C866.502 52.2869 875.445 50.0198 886.087 50.0198C895.848 50.0198 904.412 52.0665 911.78 56.1598C919.211 60.1901 924.973 66.141 929.066 74.0127C933.223 81.8844 935.301 91.5508 935.301 103.012V197H918.487V104.051C918.487 92.1491 915.149 82.7346 908.474 75.8075C901.862 68.8804 892.983 65.4168 881.836 65.4168C874.217 65.4168 867.447 67.0542 861.527 70.3288C855.608 73.6034 850.916 78.3264 847.453 84.4978C844.052 90.6062 842.352 97.8797 842.352 106.318Z" fill="black"/>
</svg>
