<svg width="1041" height="199" viewBox="0 0 1041 199" fill="none" xmlns="http://www.w3.org/2000/svg">
<path d="M0.158203 195V1.54536H62.5964C76.3246 1.54536 87.7858 4.03282 96.9799 9.00773C106.237 13.9196 113.196 20.7523 117.856 29.5056C122.579 38.1959 124.94 48.1772 124.94 59.4495C124.94 70.7217 122.579 80.6715 117.856 89.2989C113.196 97.9263 106.269 104.664 97.0744 109.513C87.8803 114.362 76.4821 116.787 62.8798 116.787H9.69869V100.634H62.4075C72.4833 100.634 80.8587 98.9653 87.5339 95.6277C94.2721 92.2902 99.2785 87.5357 102.553 81.3643C105.891 75.1929 107.559 67.8879 107.559 59.4495C107.559 51.011 105.891 43.6431 102.553 37.3458C99.2155 30.9855 94.1776 26.0735 87.4395 22.61C80.7643 19.1464 72.3258 17.4147 62.1241 17.4147H17.8223V195H0.158203ZM85.4558 107.719L133.064 195H112.66L65.5247 107.719H85.4558Z" fill="black"/>
<path d="M204.995 198.306C196.242 198.306 188.244 196.606 181.002 193.205C173.76 189.742 167.998 184.767 163.716 178.28C159.434 171.731 157.293 163.797 157.293 154.476C157.293 147.297 158.647 141.252 161.355 136.34C164.062 131.428 167.904 127.398 172.879 124.249C177.854 121.101 183.742 118.613 190.543 116.787C197.344 114.961 204.838 113.544 213.024 112.536C221.148 111.529 228.012 110.647 233.617 109.891C239.284 109.136 243.598 107.939 246.558 106.302C249.517 104.664 250.997 102.02 250.997 98.3671V94.9665C250.997 85.0797 248.038 77.3025 242.118 71.6348C236.262 65.9043 227.823 63.039 216.803 63.039C206.349 63.039 197.816 65.3375 191.204 69.9346C184.655 74.5316 180.058 79.9473 177.413 86.1817L161.449 80.4197C164.724 72.485 169.258 66.1562 175.051 61.4332C180.845 56.6472 187.331 53.2151 194.51 51.137C201.689 48.9959 208.963 47.9253 216.33 47.9253C221.872 47.9253 227.634 48.6495 233.617 50.0979C239.662 51.5463 245.267 54.0652 250.431 57.6547C255.594 61.1813 259.782 66.1247 262.994 72.485C266.205 78.7823 267.811 86.78 267.811 96.4779V195H250.997V172.046H249.958C247.943 176.328 244.952 180.485 240.985 184.515C237.017 188.545 232.042 191.851 226.06 194.433C220.077 197.015 213.056 198.306 204.995 198.306ZM207.262 182.909C216.204 182.909 223.95 180.925 230.499 176.958C237.049 172.991 242.087 167.732 245.613 161.183C249.203 154.571 250.997 147.297 250.997 139.363V118.393C249.738 119.589 247.628 120.66 244.669 121.604C241.772 122.549 238.403 123.399 234.561 124.155C230.783 124.847 227.004 125.446 223.226 125.949C219.448 126.453 216.047 126.894 213.024 127.272C204.838 128.28 197.848 129.854 192.054 131.995C186.261 134.136 181.821 137.096 178.735 140.874C175.65 144.59 174.107 149.376 174.107 155.232C174.107 164.048 177.255 170.881 183.553 175.73C189.85 180.516 197.753 182.909 207.262 182.909Z" fill="black"/>
<path d="M369.687 49.909V64.5503H300.447V49.909H369.687ZM322.079 15.1476H338.987V157.121C338.987 163.167 340.026 167.921 342.104 171.385C344.182 174.785 346.89 177.21 350.228 178.658C353.565 180.044 357.123 180.736 360.902 180.736C363.106 180.736 364.995 180.61 366.569 180.359C368.144 180.044 369.529 179.729 370.726 179.414L374.315 194.622C372.678 195.252 370.663 195.819 368.27 196.322C365.877 196.889 362.917 197.173 359.39 197.173C353.219 197.173 347.268 195.819 341.537 193.111C335.87 190.403 331.21 186.373 327.557 181.02C323.905 175.667 322.079 169.023 322.079 161.089V15.1476Z" fill="black"/>
<path d="M408.061 195V49.909H424.969V195H408.061ZM416.657 24.9715C413.193 24.9715 410.234 23.8065 407.778 21.4765C405.322 19.0835 404.094 16.2182 404.094 12.8806C404.094 9.543 405.322 6.70919 407.778 4.37918C410.234 1.98617 413.193 0.789673 416.657 0.789673C420.12 0.789673 423.08 1.98617 425.536 4.37918C427.992 6.70919 429.22 9.543 429.22 12.8806C429.22 16.2182 427.992 19.0835 425.536 21.4765C423.08 23.8065 420.12 24.9715 416.657 24.9715Z" fill="black"/>
<path d="M486.251 104.318V195H469.437V49.909H485.778V72.6739H487.29C490.69 65.243 495.98 59.2921 503.159 54.8209C510.401 50.2868 519.343 48.0198 529.986 48.0198C539.746 48.0198 548.311 50.0664 555.679 54.1597C563.11 58.19 568.872 64.141 572.965 72.0127C577.121 79.8844 579.199 89.5508 579.199 101.012V195H562.385V102.051C562.385 90.1491 559.048 80.7345 552.373 73.8074C545.76 66.8804 536.881 63.4168 525.735 63.4168C518.115 63.4168 511.345 65.0541 505.426 68.3287C499.506 71.6034 494.815 76.3264 491.351 82.4978C487.951 88.6062 486.251 95.8796 486.251 104.318Z" fill="black"/>
<path d="M664.001 198.306C655.248 198.306 647.25 196.606 640.008 193.205C632.766 189.742 627.004 184.767 622.722 178.28C618.44 171.731 616.299 163.797 616.299 154.476C616.299 147.297 617.653 141.252 620.36 136.34C623.068 131.428 626.91 127.398 631.885 124.249C636.859 121.101 642.748 118.613 649.549 116.787C656.35 114.961 663.844 113.544 672.03 112.536C680.154 111.529 687.018 110.647 692.622 109.891C698.29 109.136 702.604 107.939 705.564 106.302C708.523 104.664 710.003 102.02 710.003 98.3671V94.9665C710.003 85.0797 707.043 77.3025 701.124 71.6348C695.267 65.9043 686.829 63.039 675.809 63.039C665.355 63.039 656.822 65.3375 650.21 69.9346C643.661 74.5316 639.064 79.9473 636.419 86.1817L620.455 80.4197C623.73 72.485 628.264 66.1562 634.057 61.4332C639.851 56.6472 646.337 53.2151 653.516 51.137C660.695 48.9959 667.968 47.9253 675.336 47.9253C680.878 47.9253 686.64 48.6495 692.622 50.0979C698.668 51.5463 704.273 54.0652 709.436 57.6547C714.6 61.1813 718.788 66.1247 722 72.485C725.211 78.7823 726.817 86.78 726.817 96.4779V195H710.003V172.046H708.964C706.949 176.328 703.958 180.485 699.99 184.515C696.023 188.545 691.048 191.851 685.066 194.433C679.083 197.015 672.062 198.306 664.001 198.306ZM666.268 182.909C675.21 182.909 682.956 180.925 689.505 176.958C696.055 172.991 701.092 167.732 704.619 161.183C708.208 154.571 710.003 147.297 710.003 139.363V118.393C708.744 119.589 706.634 120.66 703.674 121.604C700.778 122.549 697.409 123.399 693.567 124.155C689.789 124.847 686.01 125.446 682.232 125.949C678.453 126.453 675.053 126.894 672.03 127.272C663.844 128.28 656.854 129.854 651.06 131.995C645.266 134.136 640.827 137.096 637.741 140.874C634.655 144.59 633.113 149.376 633.113 155.232C633.113 164.048 636.261 170.881 642.559 175.73C648.856 180.516 656.759 182.909 666.268 182.909Z" fill="black"/>
<path d="M863.737 139.552V49.909H880.551V195H863.737V170.913H862.415C859.014 178.343 853.63 184.546 846.262 189.521C838.894 194.433 829.889 196.889 819.246 196.889C809.989 196.889 801.771 194.874 794.592 190.844C787.413 186.75 781.777 180.768 777.684 172.896C773.591 165.025 771.544 155.358 771.544 143.897V49.909H788.358V142.858C788.358 154.193 791.696 163.324 798.371 170.251C805.046 177.115 813.61 180.548 824.064 180.548C830.613 180.548 836.911 178.973 842.956 175.824C849.001 172.676 853.976 168.079 857.881 162.033C861.785 155.925 863.737 148.431 863.737 139.552Z" fill="black"/>
<path d="M977.302 198.023C965.4 198.023 954.978 194.874 946.036 188.577C937.093 182.279 930.103 173.494 925.065 162.222C920.091 150.95 917.603 137.82 917.603 122.832C917.603 107.908 920.091 94.8406 925.065 83.6313C930.103 72.359 937.125 63.6057 946.13 57.3714C955.135 51.074 965.62 47.9253 977.585 47.9253C986.402 47.9253 993.738 49.4997 999.595 52.6483C1005.45 55.734 1010.14 59.5754 1013.67 64.1725C1017.2 68.7696 1019.94 73.2407 1021.89 77.5859H1023.4V1.54536H1040.31V195H1023.87V168.079H1021.89C1019.94 172.487 1017.16 177.021 1013.57 181.681C1009.99 186.278 1005.23 190.151 999.311 193.3C993.455 196.448 986.118 198.023 977.302 198.023ZM979.286 182.626C988.669 182.626 996.666 180.075 1003.28 174.974C1009.89 169.811 1014.93 162.726 1018.39 153.721C1021.92 144.653 1023.68 134.262 1023.68 122.549C1023.68 110.962 1021.95 100.729 1018.49 91.8493C1015.02 82.9071 1009.99 75.917 1003.37 70.8792C996.761 65.7783 988.732 63.2279 979.286 63.2279C969.588 63.2279 961.401 65.8728 954.726 71.1626C948.114 76.3894 943.076 83.4739 939.612 92.4161C936.212 101.358 934.512 111.403 934.512 122.549C934.512 133.821 936.243 143.991 939.707 153.06C943.17 162.128 948.208 169.338 954.82 174.691C961.496 179.981 969.651 182.626 979.286 182.626Z" fill="black"/>
</svg>
