<svg width="936" height="216" fill="none" xmlns="http://www.w3.org/2000/svg"><path d="M81.144 136.545h19.648l24.749 32.778 4.156 5.479 30.416 40.334h-19.648l-26.26-35.044-33.06-43.547Zm86.148-36.272c0 20.151-3.589 37.689-10.768 52.614-7.179 14.862-17.066 26.386-29.661 34.572-12.532 8.124-26.953 12.186-43.263 12.186s-30.762-4.062-43.357-12.186c-12.532-8.186-22.387-19.71-29.566-34.572C3.56 137.962.003 120.424.003 100.273c0-20.152 3.558-37.658 10.674-52.52 7.179-14.925 17.066-26.45 29.66-34.573C52.932 4.994 67.353.9 83.6.9c16.31 0 30.731 4.094 43.263 12.28 12.595 8.124 22.482 19.648 29.661 34.573 7.179 14.861 10.768 32.368 10.768 52.52Zm-17.192 0c0-17.318-2.897-32.148-8.69-44.491-5.794-12.406-13.697-21.883-23.71-28.433-10.012-6.549-21.38-9.823-34.1-9.823-12.657 0-23.993 3.274-34.005 9.823C39.582 33.9 31.647 43.345 25.79 55.687c-5.794 12.343-8.69 27.205-8.69 44.586 0 17.317 2.896 32.148 8.69 44.49 5.793 12.343 13.696 21.821 23.71 28.433 10.012 6.549 21.379 9.824 34.1 9.824 12.72 0 24.087-3.275 34.099-9.824 10.076-6.549 18.011-15.995 23.804-28.338 5.794-12.406 8.659-27.268 8.596-44.585ZM298.71 141.552V51.909h16.814V197H298.71v-24.087h-1.323c-3.4 7.43-8.784 13.633-16.152 18.608-7.368 4.912-16.373 7.368-27.016 7.368-9.257 0-17.475-2.015-24.654-6.045-7.179-4.094-12.815-10.076-16.908-17.948-4.094-7.871-6.14-17.538-6.14-28.999V51.909h16.814v92.949c0 11.335 3.337 20.466 10.012 27.393 6.675 6.864 15.24 10.297 25.693 10.297 6.55 0 12.847-1.575 18.893-4.723 6.045-3.149 11.02-7.746 14.924-13.792 3.905-6.108 5.857-13.602 5.857-22.481ZM418.698 200.023c-13.539 0-25.252-3.149-35.139-9.446-9.887-6.361-17.538-15.145-22.954-26.355-5.353-11.272-8.029-24.245-8.029-38.917 0-14.61 2.676-27.583 8.029-38.918 5.416-11.398 12.878-20.309 22.387-26.732 9.572-6.486 20.624-9.73 33.155-9.73 7.872 0 15.46 1.449 22.765 4.346 7.305 2.833 13.855 7.21 19.648 13.13 5.857 5.856 10.485 13.255 13.886 22.198 3.4 8.879 5.101 19.396 5.101 31.549v8.313H364.194v-14.83h96.161c0-9.32-1.889-17.696-5.668-25.127-3.715-7.494-8.911-13.413-15.586-17.758-6.612-4.346-14.263-6.518-22.954-6.518-9.194 0-17.286 2.456-24.276 7.368-6.99 4.912-12.469 11.398-16.436 19.459-3.904 8.06-5.888 16.877-5.951 26.449v8.879c0 11.524 1.984 21.6 5.951 30.227 4.03 8.564 9.73 15.208 17.097 19.931 7.368 4.723 16.09 7.085 26.166 7.085 6.864 0 12.878-1.071 18.042-3.212 5.227-2.141 9.603-5.006 13.13-8.596 3.589-3.652 6.297-7.651 8.123-11.996l15.964 5.195c-2.204 6.108-5.825 11.745-10.863 16.908-4.975 5.164-11.209 9.32-18.703 12.469-7.431 3.086-15.995 4.629-25.693 4.629ZM531.413 106.318V197h-16.814V51.909h16.341v22.765h1.512c3.4-7.43 8.69-13.382 15.869-17.853 7.242-4.534 16.184-6.801 26.827-6.801 9.761 0 18.325 2.046 25.693 6.14 7.431 4.03 13.193 9.981 17.286 17.853 4.156 7.871 6.234 17.538 6.234 28.999V197h-16.814v-92.949c0-11.902-3.337-21.316-10.012-28.243-6.612-6.928-15.492-10.391-26.638-10.391-7.62 0-14.39 1.637-20.309 4.912-5.92 3.274-10.611 7.997-14.075 14.169-3.4 6.108-5.1 13.382-5.1 21.82ZM725.788 51.909V66.55h-69.239V51.91h69.239ZM678.18 17.148h16.909V159.12c0 6.046 1.039 10.8 3.117 14.264 2.078 3.4 4.786 5.825 8.123 7.273 3.338 1.386 6.896 2.078 10.674 2.078 2.204 0 4.094-.125 5.668-.377a71.96 71.96 0 0 0 4.156-.945l3.59 15.208c-1.638.63-3.653 1.197-6.046 1.7-2.393.567-5.353.851-8.879.851-6.171 0-12.122-1.354-17.853-4.062-5.668-2.708-10.328-6.738-13.98-12.091-3.653-5.353-5.479-11.997-5.479-19.931V17.148ZM764.163 197V51.909h16.908V197h-16.908Zm8.595-170.029c-3.463 0-6.423-1.165-8.879-3.494-2.456-2.393-3.684-5.259-3.684-8.596 0-3.338 1.228-6.172 3.684-8.502 2.456-2.393 5.416-3.59 8.879-3.59 3.464 0 6.424 1.197 8.88 3.59 2.456 2.33 3.684 5.164 3.684 8.502 0 3.337-1.228 6.203-3.684 8.596-2.456 2.33-5.416 3.494-8.88 3.494ZM842.352 106.318V197h-16.814V51.909h16.342v22.765h1.511c3.401-7.43 8.69-13.382 15.869-17.853 7.242-4.534 16.185-6.801 26.827-6.801 9.761 0 18.325 2.046 25.693 6.14 7.431 4.03 13.193 9.981 17.286 17.853 4.157 7.871 6.235 17.538 6.235 28.999V197h-16.814v-92.949c0-11.902-3.338-21.316-10.013-28.243-6.612-6.928-15.491-10.391-26.638-10.391-7.619 0-14.389 1.637-20.309 4.912-5.919 3.274-10.611 7.997-14.074 14.169-3.401 6.108-5.101 13.382-5.101 21.82Z" fill="#000"/></svg>