<svg width="1041" height="199" fill="none" xmlns="http://www.w3.org/2000/svg"><path d="M.158 195V1.545h62.438c13.729 0 25.19 2.488 34.384 7.463 9.257 4.912 16.216 11.744 20.876 20.498 4.723 8.69 7.084 18.671 7.084 29.944 0 11.272-2.361 21.221-7.084 29.849-4.66 8.627-11.587 15.365-20.782 20.214-9.194 4.849-20.592 7.274-34.194 7.274H9.699v-16.153h52.709c10.075 0 18.45-1.669 25.126-5.006 6.738-3.338 11.744-8.092 15.019-14.264 3.338-6.171 5.006-13.476 5.006-21.915 0-8.438-1.668-15.806-5.006-22.103-3.337-6.36-8.375-11.272-15.114-14.736-6.675-3.464-15.113-5.195-25.315-5.195H17.822V195H.158Zm85.298-87.281L133.064 195H112.66l-47.135-87.281h19.93ZM204.995 198.306c-8.753 0-16.751-1.7-23.993-5.101-7.242-3.463-13.004-8.438-17.286-14.925-4.282-6.549-6.423-14.483-6.423-23.804 0-7.179 1.354-13.224 4.062-18.136 2.707-4.912 6.549-8.942 11.524-12.091 4.975-3.148 10.863-5.636 17.664-7.462 6.801-1.826 14.295-3.243 22.481-4.251a1980.3 1980.3 0 0 0 20.593-2.645c5.667-.755 9.981-1.952 12.941-3.589 2.959-1.638 4.439-4.282 4.439-7.935v-3.4c0-9.887-2.959-17.665-8.879-23.332-5.856-5.73-14.295-8.596-25.315-8.596-10.454 0-18.987 2.299-25.599 6.896-6.549 4.597-11.146 10.012-13.791 16.247l-15.964-5.762c3.275-7.935 7.809-14.264 13.602-18.987 5.794-4.786 12.28-8.218 19.459-10.296 7.179-2.141 14.453-3.212 21.82-3.212 5.542 0 11.304.725 17.287 2.173 6.045 1.448 11.65 3.967 16.814 7.557 5.163 3.526 9.351 8.47 12.563 14.83 3.211 6.297 4.817 14.295 4.817 23.993V195h-16.814v-22.954h-1.039c-2.015 4.282-5.006 8.439-8.973 12.469-3.968 4.03-8.943 7.336-14.925 9.918-5.983 2.582-13.004 3.873-21.065 3.873Zm2.267-15.397c8.942 0 16.688-1.984 23.237-5.951 6.55-3.967 11.588-9.226 15.114-15.775 3.59-6.612 5.384-13.886 5.384-21.82v-20.97c-1.259 1.196-3.369 2.267-6.328 3.211-2.897.945-6.266 1.795-10.108 2.551a235.202 235.202 0 0 1-11.335 1.794c-3.778.504-7.179.945-10.202 1.323-8.186 1.008-15.176 2.582-20.97 4.723-5.793 2.141-10.233 5.101-13.319 8.879-3.085 3.716-4.628 8.502-4.628 14.358 0 8.816 3.148 15.649 9.446 20.498 6.297 4.786 14.2 7.179 23.709 7.179ZM369.687 49.909V64.55h-69.24V49.91h69.24Zm-47.608-34.761h16.908V157.12c0 6.046 1.039 10.8 3.117 14.264 2.078 3.4 4.786 5.825 8.124 7.273 3.337 1.386 6.895 2.078 10.674 2.078 2.204 0 4.093-.126 5.667-.377 1.575-.315 2.96-.63 4.157-.945l3.589 15.208c-1.637.63-3.652 1.197-6.045 1.7-2.393.567-5.353.851-8.88.851-6.171 0-12.122-1.354-17.853-4.062-5.667-2.708-10.327-6.738-13.98-12.091-3.652-5.353-5.478-11.997-5.478-19.931V15.148ZM408.061 195V49.909h16.908V195h-16.908Zm8.596-170.029c-3.464 0-6.423-1.165-8.879-3.494-2.456-2.393-3.684-5.259-3.684-8.596 0-3.338 1.228-6.172 3.684-8.502 2.456-2.393 5.415-3.59 8.879-3.59 3.463 0 6.423 1.197 8.879 3.59 2.456 2.33 3.684 5.164 3.684 8.502 0 3.337-1.228 6.203-3.684 8.596-2.456 2.33-5.416 3.494-8.879 3.494ZM486.251 104.318V195h-16.814V49.909h16.341v22.765h1.512c3.4-7.431 8.69-13.382 15.869-17.853 7.242-4.534 16.184-6.801 26.827-6.801 9.76 0 18.325 2.046 25.693 6.14 7.431 4.03 13.193 9.981 17.286 17.853 4.156 7.871 6.234 17.538 6.234 28.999V195h-16.814v-92.949c0-11.902-3.337-21.317-10.012-28.244-6.613-6.927-15.492-10.39-26.638-10.39-7.62 0-14.39 1.637-20.309 4.912-5.92 3.274-10.611 7.997-14.075 14.169-3.4 6.108-5.1 13.382-5.1 21.82ZM664.001 198.306c-8.753 0-16.751-1.7-23.993-5.101-7.242-3.463-13.004-8.438-17.286-14.925-4.282-6.549-6.423-14.483-6.423-23.804 0-7.179 1.354-13.224 4.061-18.136 2.708-4.912 6.55-8.942 11.525-12.091 4.974-3.148 10.863-5.636 17.664-7.462 6.801-1.826 14.295-3.243 22.481-4.251a1976.17 1976.17 0 0 0 20.592-2.645c5.668-.755 9.982-1.952 12.942-3.589 2.959-1.638 4.439-4.282 4.439-7.935v-3.4c0-9.887-2.96-17.665-8.879-23.332-5.857-5.73-14.295-8.596-25.315-8.596-10.454 0-18.987 2.299-25.599 6.896-6.549 4.597-11.146 10.012-13.791 16.247l-15.964-5.762c3.275-7.935 7.809-14.264 13.602-18.987 5.794-4.786 12.28-8.218 19.459-10.296 7.179-2.141 14.452-3.212 21.82-3.212 5.542 0 11.304.725 17.286 2.173 6.046 1.448 11.651 3.967 16.814 7.557 5.164 3.526 9.352 8.47 12.564 14.83 3.211 6.297 4.817 14.295 4.817 23.993V195h-16.814v-22.954h-1.039c-2.015 4.282-5.006 8.439-8.974 12.469-3.967 4.03-8.942 7.336-14.924 9.918-5.983 2.582-13.004 3.873-21.065 3.873Zm2.267-15.397c8.942 0 16.688-1.984 23.237-5.951 6.55-3.967 11.587-9.226 15.114-15.775 3.589-6.612 5.384-13.886 5.384-21.82v-20.97c-1.259 1.196-3.369 2.267-6.329 3.211-2.896.945-6.265 1.795-10.107 2.551a235.202 235.202 0 0 1-11.335 1.794c-3.779.504-7.179.945-10.202 1.323-8.186 1.008-15.176 2.582-20.97 4.723-5.794 2.141-10.233 5.101-13.319 8.879-3.086 3.716-4.628 8.502-4.628 14.358 0 8.816 3.148 15.649 9.446 20.498 6.297 4.786 14.2 7.179 23.709 7.179ZM863.737 139.552V49.909h16.814V195h-16.814v-24.087h-1.322c-3.401 7.43-8.785 13.633-16.153 18.608-7.368 4.912-16.373 7.368-27.016 7.368-9.257 0-17.475-2.015-24.654-6.045-7.179-4.094-12.815-10.076-16.908-17.948-4.093-7.871-6.14-17.538-6.14-28.999V49.909h16.814v92.949c0 11.335 3.338 20.466 10.013 27.393 6.675 6.864 15.239 10.297 25.693 10.297 6.549 0 12.847-1.575 18.892-4.724 6.045-3.148 11.02-7.745 14.925-13.791 3.904-6.108 5.856-13.602 5.856-22.481ZM977.302 198.023c-11.902 0-22.324-3.149-31.266-9.446-8.943-6.298-15.933-15.083-20.971-26.355-4.974-11.272-7.462-24.402-7.462-39.39 0-14.924 2.488-27.991 7.462-39.2 5.038-11.273 12.06-20.026 21.065-26.26 9.005-6.298 19.49-9.447 31.455-9.447 8.817 0 16.153 1.575 22.01 4.723 5.855 3.086 10.545 6.927 14.075 11.524 3.53 4.598 6.27 9.069 8.22 13.414h1.51V1.546h16.91V195h-16.44v-26.921h-1.98c-1.95 4.408-4.73 8.942-8.32 13.602-3.58 4.597-8.34 8.47-14.259 11.619-5.856 3.148-13.193 4.723-22.009 4.723Zm1.984-15.397c9.383 0 17.38-2.551 23.994-7.652 6.61-5.163 11.65-12.248 15.11-21.253 3.53-9.068 5.29-19.459 5.29-31.172 0-11.587-1.73-21.82-5.19-30.7-3.47-8.942-8.5-15.932-15.12-20.97-6.609-5.1-14.638-7.651-24.084-7.651-9.698 0-17.885 2.645-24.56 7.935-6.612 5.226-11.65 12.31-15.114 21.253-3.4 8.942-5.1 18.987-5.1 30.133 0 11.272 1.731 21.442 5.195 30.511 3.463 9.068 8.501 16.278 15.113 21.631 6.676 5.29 14.831 7.935 24.466 7.935Z" fill="#000"/></svg>